# xmcd CD database file
#
# Track frame offsets:
#	150
#	12465
#	22416
#	33989
#	46994
#	62119
#	73726
#	85885
#	95779
#	109171
#
# Disc length: 1632 seconds
#
# Revision: 0
# Processed by: cddbd v1.5.2PL0 Copyright (c) Steve Scherf et al.
# Submitted via: CDex 1.70beta2
#
DISCID=8d065e0a
DTITLE=Merle Haggard - The Best of Merle Haggard
DYEAR=2009
DGENRE=Country
TTITLE0=Okie From Muskogee
TTITLE1=Mama Tried
TTITLE2=Carolyn
TTITLE3=The Fightin, Side Of Me
TTITLE4=It's Not Love
TTITLE5=Workin' Man Blues
TTITLE6=If We Make It Through December
TTITLE7=Soldier's Last Letter
TTITLE8=I'm A Lonesome Fugitive
TTITLE9=Everybody's Had The Blues
EXTD=YEAR: 2009
EXTT0=
EXTT1=
EXTT2=
EXTT3=
EXTT4=
EXTT5=
EXTT6=
EXTT7=
EXTT8=
EXTT9=
PLAYORDER=
